# xmcd
#
# Track frame offsets:
#	150
#	23217
#	42767
#	60027
#	84342
#	103837
#	127950
#	143635
#	157987
#	168455
#	184792
#	197717
#	213052
#	230822
#
# Disc length: 3264 seconds
#
# Revision: 2
# Processed by: cddbd v1.5.2PL0 Copyright (c) Steve Scherf et al.
# Submitted via: audiograbber 1.83.01
#
DISCID=ae0cbe0e
DTITLE=Supermusica - Sevillanas
DYEAR=1995
DGENRE=Sevillanas
TTITLE0=Coro Nuestra Señora Rocío Almonte - Con mi Hermandad
TTITLE1=Coro Nuestra Señora Rocío Almonte - ¿Por Que?
TTITLE2=Coro Nuestra Señora Rocío Almonte - Como tu Quisiste
TTITLE3=Coro Nuestra Señora Rocío Almonte - Nunca se Perdera
TTITLE4=Luz del Sur - Sevilla se queda Sola
TTITLE5=Luz del Sur - Barrio del Arenal
TTITLE6=Los Serafines de Balmes - No la beses en la Boca
TTITLE7=Los de Belén - Viva mi Andalucia
TTITLE8=Los del Rio - Viva Triana
TTITLE9=Los Serafines de Balmes - El parque de Maria Luisa
TTITLE10=Los del Rio - Sevillana de las Cruces
TTITLE11=Los de Carmona - Sevillanas del Labrador
TTITLE12=Los Serafines de Balmes - Sevilla se viste de Gala
TTITLE13=Los del Rio - El amor y las Cosas
EXTD=
EXTT0=
EXTT1=
EXTT2=
EXTT3=
EXTT4=
EXTT5=
EXTT6=
EXTT7=
EXTT8=
EXTT9=
EXTT10=
EXTT11=
EXTT12=
EXTT13=
PLAYORDER=
